<?xml version="1.0" standalone="no"?><!DOCTYPE svg PUBLIC "-//W3C//DTD SVG 1.1//EN" "http://www.w3.org/Graphics/SVG/1.1/DTD/svg11.dtd"><svg t="1699788917719" class="icon" viewBox="0 0 1024 1024" version="1.1" xmlns="http://www.w3.org/2000/svg" p-id="14615" xmlns:xlink="http://www.w3.org/1999/xlink" width="64" height="64"><path d="M789.333333 682.666667V341.333333L512 192v34.133333L746.666667 362.666667v296.533333l42.666666 23.466667z m149.333334-288V746.666667L512 981.333333 85.333333 746.666667V277.333333L512 42.666667l426.666667 234.666666 36.266666-25.6L512 0 42.666667 256v512l469.333333 256 469.333333-256V373.333333l-42.666666 21.333334zM661.333333 768V426.666667l-277.333333-149.333334v34.133334L618.666667 448v294.4l42.666666 25.6z m-405.333333-106.666667l277.333333 170.666667V490.666667l-277.333333-149.333334v320z m42.666667-256l192 106.666667v256l-192-128V405.333333z" fill="#849B9B" p-id="14616"></path></svg>